# xmcd CD database file
#
# Track frame offsets:
#	150
#	12429
#	20306
#	34958
#	45323
#	53770
#	66289
#	79319
#	91103
#	100598
#	114525
#	127610
#	140249
#	151717
#	164009
#	178703
#	189612
#	204460
#	216525
#	228646
#	240112
#	252745
#	266536
#	279920
#	293649
#	306879
#	319117
#	334506
#	346730
#
# Disc length: 4792 seconds
#
# Revision: 0
# Processed by: cddbd v1.5.2PL0 Copyright (c) Steve Scherf et al.
# Submitted via: CDex 1.70beta2
#
DISCID=9712b61d
DTITLE=Williams,Leona - Yes, Ma´m, He Found Me In A Honky Tonk [CD 2)
DYEAR=2013
DGENRE=Country
TTITLE0=Out Of Hand 
TTITLE1=Ain't That Fine 
TTITLE2=How Great Thou Art 
TTITLE3=Cheese Cake And Apple Pie 
TTITLE4=Your Shoeshine Girl 
TTITLE5=I'm Not Supposed To Love You Anymore
TTITLE6=I'd Rather Die (Loving Him) 
TTITLE7=I Can't Tell My Heart That 
TTITLE8=I Spent A Week There Last Night 
TTITLE9=Anything Goes (Til Everything's Gone) 
TTITLE10=It's Tearing This Ole Heart Right Out Of Me 
TTITLE11=Everybody Loves Me But You
TTITLE12=A Lifetime To Forget 
TTITLE13=You Don't Love Me Like You Mean It 
TTITLE14=Just Like A Prayer 
TTITLE15=Hey I'm Somebody (Not Just A Body) 
TTITLE16=For All I Know 
TTITLE17=There's More Love In The Arms You'll Be Leavin' 
TTITLE18=Shape Up Or Ship Out 
TTITLE19=I Wonder Where I'll Find You At Tonight 
TTITLE20=If Anyone Ought To Know 
TTITLE21=I Want To Live Again 
TTITLE22=That Lonely Unloved Wife Look 
TTITLE23=Mama, I've Got To Go To Memphis 
TTITLE24=Window Up Above 
TTITLE25=Rockin' Rollin' Stoned 
TTITLE26=Bright Morning Light 
TTITLE27=The Bull And The Beaver (& Haggard, Merle)
TTITLE28=I'm Getting' High (& Haggard, Merle)
EXTD=YEAR: 2013
EXTT0=
EXTT1=
EXTT2=
EXTT3=
EXTT4=
EXTT5=
EXTT6=
EXTT7=
EXTT8=
EXTT9=
EXTT10=
EXTT11=
EXTT12=
EXTT13=
EXTT14=
EXTT15=
EXTT16=
EXTT17=
EXTT18=
EXTT19=
EXTT20=
EXTT21=
EXTT22=
EXTT23=
EXTT24=
EXTT25=
EXTT26=
EXTT27=
EXTT28=
PLAYORDER=
